<svg xmlns="http://www.w3.org/2000/svg" version="1.1" xmlns:xlink="http://www.w3.org/1999/xlink" xmlns:svgjs="http://svgjs.dev/svgjs" width="2000" height="1500" viewBox="0 0 2000 1500"><rect width="2000" height="1500" fill="#ffffff"></rect><g transform="matrix(0.75,0,0,0.75,249.090909090909,541.6054610665187)"><svg viewBox="0 0 396 110" data-background-color="#ffffff" preserveAspectRatio="xMidYMid meet" height="555" width="2000" xmlns="http://www.w3.org/2000/svg" xmlns:xlink="http://www.w3.org/1999/xlink"><g id="tight-bounds" transform="matrix(1,0,0,1,0.2400000000000091,0.07122950794698113)"><svg viewBox="0 0 395.52 109.85754098410605" height="109.85754098410605" width="395.52"><g><svg viewBox="0 0 720.5145105448723 200.126295438477" height="109.85754098410605" width="395.52"><g><rect width="8.607941965130658" height="200.126295438477" x="293.85268908987086" y="0" fill="#3349a8" opacity="1" stroke-width="0" stroke="transparent" fill-opacity="1" class="rect-qz-0" data-fill-palette-color="primary" rx="1%" id="qz-0" data-palette-color="#3349a8"></rect></g><g transform="matrix(1,0,0,1,324.99451054487236,16.677191286539752)"><svg viewBox="0 0 395.52 166.7719128653975" height="166.7719128653975" width="395.52"><g id="textblocktransform"><svg viewBox="0 0 395.52 166.7719128653975" height="166.7719128653975" width="395.52" id="textblock"><g><svg viewBox="0 0 395.52 95.45180149558122" height="95.45180149558122" width="395.52"><g transform="matrix(1,0,0,1,0,0)"><svg width="395.52" viewBox="3.5 -35 147.09 35.5" height="95.45180149558122" data-palette-color="#3349a8"><path d="M27.55-17.5L27.55-17.5Q27.5-9.15 22.93-4.58 18.35 0 10.3 0L10.3 0 3.5 0 3.5-35 10.3-35Q18.35-35 22.93-30.43 27.5-25.85 27.55-17.5ZM8.2-4.4L10.9-4.4Q16.45-4.4 19.43-8.08 22.4-11.75 22.5-17.5L22.5-17.5Q22.4-23.25 19.43-26.93 16.45-30.6 10.9-30.6L10.9-30.6 8.2-30.6 8.2-4.4ZM36.3-20.85L36.3-20.85Q39.8-24.5 45.05-24.5L45.05-24.5Q47.6-24.5 49.82-23.53 52.05-22.55 53.72-20.85 55.4-19.15 56.35-16.88 57.3-14.6 57.3-12L57.3-12Q57.3-9.4 56.37-7.13 55.45-4.85 53.8-3.15 52.15-1.45 49.9-0.48 47.65 0.5 45.05 0.5L45.05 0.5Q42.4 0.5 40.17-0.48 37.95-1.45 36.3-3.15 34.65-4.85 33.72-7.13 32.8-9.4 32.8-12L32.8-12Q32.8-17.3 36.3-20.85ZM45.05-20.3L45.05-20.3Q41.55-20.3 39.42-18 37.3-15.7 37.3-12 37.3-8.3 39.42-6 41.55-3.7 45.05-3.7L45.05-3.7Q48.6-3.7 50.7-6.03 52.8-8.35 52.8-12 52.8-15.65 50.7-17.98 48.6-20.3 45.05-20.3ZM62.8 0L62.8-24 71.45-24Q77-24 79.4-22.35L79.4-22.35Q81.55-20.9 82.12-18.88 82.7-16.85 82.7-13.55L82.7-13.55 82.7 0 78.3 0 78.3-13.5Q78.3-14.4 78.25-15.03 78.2-15.65 77.9-16.63 77.59-17.6 77.05-18.23 76.5-18.85 75.45-19.33 74.4-19.8 72.9-19.8L72.9-19.8 67.2-19.8 67.2 0 62.8 0ZM102.04-14.1L102.04-14.1 102.04-9.6Q100.14-11.05 97.39-11.05L97.39-11.05Q95.04-11.05 93.74-10.13 92.44-9.2 92.44-7.5L92.44-7.5Q92.44-4.2 97.34-4.2L97.34-4.2 103.94-4.2 103.94-13.75Q103.94-19.8 98.04-19.8L98.04-19.8 90.04-19.8 90.04-24 98.29-24Q103.14-24 105.74-21.6 108.34-19.2 108.34-14.7L108.34-14.7 108.34 0 97.19 0Q92.94 0 90.44-1.9 87.94-3.8 87.94-7.45 87.94-11.1 90.59-13 93.24-14.9 97.24-14.9L97.24-14.9Q99.49-14.9 102.04-14.1ZM113.84-9.5L113.84-9.5 113.84-35 118.34-35 118.34-9.5Q118.34-7.7 118.77-6.58 119.19-5.45 120.09-4.98 120.99-4.5 121.84-4.35 122.69-4.2 124.09-4.2L124.09-4.2 124.09 0Q118.49 0 116.17-2.15 113.84-4.3 113.84-9.5ZM146.09-4.2L146.09-35 150.59-35 150.59 0 138.84 0Q133.39 0 129.99-3.48 126.59-6.95 126.59-12.25L126.59-12.25Q126.59-17.45 130.11-20.98 133.64-24.5 138.49-24.5L138.49-24.5Q141.59-24.5 144.29-23L144.29-23 144.29-18.5Q141.79-20.3 138.49-20.3L138.49-20.3Q135.49-20.3 133.41-18.07 131.34-15.85 131.34-12.25L131.34-12.25Q131.34-8.6 133.31-6.4 135.29-4.2 138.84-4.2L138.84-4.2 146.09-4.2Z" opacity="1" transform="matrix(1,0,0,1,0,0)" fill="#3349a8" class="wordmark-text-0" data-fill-palette-color="primary" id="text-0"></path></svg></g></svg></g><g transform="matrix(1,0,0,1,0,117.98568098545206)"><svg viewBox="0 0 232.209792 48.78623187994543" height="48.78623187994543" width="232.209792"><g transform="matrix(1,0,0,1,0,0)"><svg width="232.209792" viewBox="3.8 -38.15 183.23 38.5" height="48.78623187994543" data-palette-color="#2776c2"><path d="M5.45 0L5.45 0Q4.8 0 4.3-0.3 3.8-0.6 3.8-1.25L3.8-1.25 3.8-35.3Q3.8-35.9 4.28-36.23 4.75-36.55 5.3-36.55L5.3-36.55 23-36.55Q23.65-36.55 23.95-36.08 24.25-35.6 24.25-35.1L24.25-35.1Q24.25-34.45 23.93-33.98 23.6-33.5 23-33.5L23-33.5 7.1-33.5 7.1-19.75 15-19.75Q15.55-19.75 15.88-19.3 16.2-18.85 16.2-18.25L16.2-18.25Q16.2-17.8 15.93-17.35 15.65-16.9 15-16.9L15-16.9 7.1-16.9 7.1-1.25Q7.1-0.6 6.58-0.3 6.05 0 5.45 0ZM23.95 0L23.95 0Q23.3 0 22.82-0.4 22.35-0.8 22.35-1.3L22.35-1.3 22.35-22.45Q22.35-23 22.82-23.33 23.3-23.65 23.95-23.65L23.95-23.65Q24.6-23.65 25.05-23.33 25.5-23 25.5-22.45L25.5-22.45 25.5-20Q26.05-21 27-21.9 27.95-22.8 29.25-23.38 30.55-23.95 32.2-23.95L32.2-23.95 33.95-23.95Q34.5-23.95 34.87-23.53 35.25-23.1 35.25-22.45L35.25-22.45Q35.25-21.85 34.87-21.4 34.5-20.95 33.95-20.95L33.95-20.95 32.2-20.95Q30.55-20.95 29.02-20.08 27.5-19.2 26.55-17.57 25.6-15.95 25.6-13.65L25.6-13.65 25.6-1.3Q25.6-0.8 25.12-0.4 24.65 0 23.95 0ZM46.4 0.35L46.4 0.35Q43.85 0.35 41.7-0.98 39.55-2.3 38.22-4.48 36.9-6.65 36.9-9.15L36.9-9.15 36.9-14.6Q36.9-17.1 38.2-19.23 39.5-21.35 41.65-22.65 43.8-23.95 46.4-23.95L46.4-23.95Q48.95-23.95 51.12-22.68 53.3-21.4 54.6-19.3 55.9-17.2 55.9-14.6L55.9-14.6 55.9-9.15Q55.9-6.7 54.6-4.5 53.3-2.3 51.12-0.98 48.95 0.35 46.4 0.35ZM46.4-2.65L46.4-2.65Q48.15-2.65 49.55-3.58 50.95-4.5 51.8-6 52.65-7.5 52.65-9.15L52.65-9.15 52.65-14.6Q52.65-16.2 51.82-17.65 51-19.1 49.57-20.03 48.15-20.95 46.4-20.95L46.4-20.95Q44.65-20.95 43.25-20.03 41.85-19.1 41-17.65 40.15-16.2 40.15-14.6L40.15-14.6 40.15-9.15Q40.15-7.5 41-6 41.85-4.5 43.27-3.58 44.7-2.65 46.4-2.65ZM62.84 0L62.84 0Q62.19 0 61.72-0.4 61.24-0.8 61.24-1.3L61.24-1.3 61.24-22.45Q61.24-23 61.72-23.33 62.19-23.65 62.84-23.65L62.84-23.65Q63.49-23.65 63.94-23.33 64.39-23 64.39-22.45L64.39-22.45 64.39-20.15Q65.19-21.6 66.89-22.78 68.59-23.95 71.09-23.95L71.09-23.95Q73.49-23.95 75.52-22.68 77.54-21.4 78.74-19.3 79.94-17.2 79.94-14.6L79.94-14.6 79.94-1.3Q79.94-0.65 79.44-0.33 78.94 0 78.29 0L78.29 0Q77.74 0 77.22-0.33 76.69-0.65 76.69-1.3L76.69-1.3 76.69-14.6Q76.69-16.2 75.84-17.65 74.99-19.1 73.59-20.03 72.19-20.95 70.49-20.95L70.49-20.95Q68.99-20.95 67.62-20.18 66.24-19.4 65.37-18 64.49-16.6 64.49-14.6L64.49-14.6 64.49-1.3Q64.49-0.8 64.02-0.4 63.54 0 62.84 0ZM95.19 0L93.79 0Q89.94 0 87.89-1.75 85.84-3.5 85.84-7.35L85.84-7.35 85.84-33.7Q85.84-34.25 86.37-34.58 86.89-34.9 87.44-34.9L87.44-34.9Q88.09-34.9 88.59-34.58 89.09-34.25 89.09-33.7L89.09-33.7 89.09-23.65 95.59-23.65Q96.09-23.65 96.39-23.25 96.69-22.85 96.69-22.3L96.69-22.3Q96.69-21.75 96.39-21.35 96.09-20.95 95.59-20.95L95.59-20.95 89.09-20.95 89.09-7.35Q89.09-4.9 90.14-3.93 91.19-2.95 93.79-2.95L93.79-2.95 95.19-2.95Q95.89-2.95 96.27-2.53 96.64-2.1 96.64-1.5L96.64-1.5Q96.64-0.9 96.27-0.45 95.89 0 95.19 0L95.19 0ZM112.39-10.6L99.39-10.6Q98.84-10.6 98.49-11 98.14-11.4 98.14-12L98.14-12Q98.14-12.65 98.49-13.08 98.84-13.5 99.39-13.5L99.39-13.5 112.39-13.5Q112.89-13.5 113.26-13.08 113.64-12.65 113.64-12L113.64-12Q113.64-11.4 113.26-11 112.89-10.6 112.39-10.6L112.39-10.6ZM138.99 0L121.19 0Q120.64 0 120.16-0.33 119.69-0.65 119.69-1.3L119.69-1.3 119.69-35.3Q119.69-35.9 120.16-36.23 120.64-36.55 121.19-36.55L121.19-36.55 138.99-36.55Q139.64-36.55 139.94-36.08 140.24-35.6 140.24-35.1L140.24-35.1Q140.24-34.45 139.91-33.98 139.59-33.5 138.99-33.5L138.99-33.5 122.99-33.5 122.99-19.75 130.84-19.75Q131.44-19.75 131.76-19.3 132.09-18.85 132.09-18.25L132.09-18.25Q132.09-17.8 131.79-17.35 131.49-16.9 130.84-16.9L130.84-16.9 122.99-16.9 122.99-3.05 138.99-3.05Q139.59-3.05 139.91-2.6 140.24-2.15 140.24-1.5L140.24-1.5Q140.24-0.95 139.94-0.48 139.64 0 138.99 0L138.99 0ZM145.98 0L145.98 0Q145.33 0 144.86-0.4 144.38-0.8 144.38-1.3L144.38-1.3 144.38-22.45Q144.38-23 144.86-23.33 145.33-23.65 145.98-23.65L145.98-23.65Q146.63-23.65 147.08-23.33 147.53-23 147.53-22.45L147.53-22.45 147.53-20.15Q148.33-21.6 150.03-22.78 151.73-23.95 154.23-23.95L154.23-23.95Q156.63-23.95 158.66-22.68 160.68-21.4 161.88-19.3 163.08-17.2 163.08-14.6L163.08-14.6 163.08-1.3Q163.08-0.65 162.58-0.33 162.08 0 161.43 0L161.43 0Q160.88 0 160.36-0.33 159.83-0.65 159.83-1.3L159.83-1.3 159.83-14.6Q159.83-16.2 158.98-17.65 158.13-19.1 156.73-20.03 155.33-20.95 153.63-20.95L153.63-20.95Q152.13-20.95 150.76-20.18 149.38-19.4 148.51-18 147.63-16.6 147.63-14.6L147.63-14.6 147.63-1.3Q147.63-0.8 147.16-0.4 146.68 0 145.98 0ZM177.08 0.35L177.08 0.35Q174.73 0.35 172.68-0.98 170.63-2.3 169.43-4.5 168.23-6.7 168.23-9.15L168.23-9.15 168.23-14.6Q168.23-17.2 169.43-19.3 170.63-21.4 172.68-22.68 174.73-23.95 177.18-23.95L177.18-23.95Q179.63-23.95 181.31-22.78 182.98-21.6 183.78-20.15L183.78-20.15 183.78-36.95Q183.78-37.5 184.28-37.83 184.78-38.15 185.43-38.15L185.43-38.15Q186.18-38.15 186.61-37.83 187.03-37.5 187.03-36.95L187.03-36.95 187.03-1.3Q187.03-0.8 186.61-0.4 186.18 0 185.43 0L185.43 0Q184.83 0 184.38-0.4 183.93-0.8 183.93-1.3L183.93-1.3 183.93-3.5Q183.13-1.95 181.26-0.8 179.38 0.35 177.08 0.35ZM177.63-2.65L177.63-2.65Q179.43-2.65 180.81-3.58 182.18-4.5 182.98-5.68 183.78-6.85 183.78-7.6L183.78-7.6 183.78-14.6Q183.78-16.6 182.88-18 181.98-19.4 180.58-20.18 179.18-20.95 177.68-20.95L177.68-20.95Q175.98-20.95 174.58-20.03 173.18-19.1 172.33-17.65 171.48-16.2 171.48-14.6L171.48-14.6 171.48-9.15Q171.48-7.5 172.33-6 173.18-4.5 174.58-3.58 175.98-2.65 177.63-2.65Z" opacity="1" transform="matrix(1,0,0,1,0,0)" fill="#2776c2" class="slogan-text-1" data-fill-palette-color="secondary" id="text-1"></path></svg></g></svg></g></svg></g></svg></g><g transform="matrix(1,0,0,1,0,31.31585505144494)"><svg viewBox="0 0 271.3188096 137.49458533558712" height="137.49458533558712" width="271.3188096"><g><svg xmlns="http://www.w3.org/2000/svg" xmlns:xlink="http://www.w3.org/1999/xlink" xml:space="preserve" version="1.1" style="shape-rendering:geometricPrecision;text-rendering:geometricPrecision;image-rendering:optimizeQuality;" viewBox="41.8725 228.5871312361206 762.925 386.6228687638794" x="0" y="0" fill-rule="evenodd" clip-rule="evenodd" height="137.49458533558712" width="271.3188096" class="icon-icon-0" data-fill-palette-color="accent" id="icon-0"><g fill="#25759e" data-fill-palette-color="accent"><path class="" d="M66.51 615.21c-32.85 0-32.85-49.95 0-49.95l713.65 0c32.85 0 32.85 49.95 0 49.95l-713.65 0z m362.25-368.1c3.56-13.32 17.25-21.23 30.57-17.67 13.32 3.56 21.23 17.25 17.67 30.57l-59.11 220.61c-3.56 13.32-17.25 21.23-30.57 17.67-13.32-3.56-21.23-17.25-17.67-30.57l59.11-220.61z m-192.55-8.07c23.22-23.23 58.55 12.11 35.33 35.33l-95.71 95.71 95.71 95.7c23.22 23.22-12.11 58.56-35.33 35.33l-113.37-113.37c-9.74-9.74-9.74-25.59 0-35.33l113.37-113.37z m338.92 35.33c-23.23-23.22 12.1-58.56 35.33-35.33l113.37 113.37c9.74 9.74 9.74 25.59 0 35.33l-113.37 113.37c-23.23 23.23-58.56-12.11-35.33-35.33l95.7-95.7-95.7-95.71z" fill="#25759e" fill-rule="nonzero" data-fill-palette-color="accent"></path></g></svg></g></svg></g></svg></g><defs></defs></svg><rect width="395.52" height="109.85754098410605" fill="none" stroke="none" visibility="hidden"></rect></g></svg></g></svg>